<svg xmlns="http://www.w3.org/2000/svg" width="1200" height="260" viewBox="0 0 1200 260">
  <defs>
    <filter id="soft">
      <feGaussianBlur stdDeviation="0.6"/>
    </filter>
  </defs>
  <rect width="100%" height="100%" fill="none"/>
  <g fill="none" stroke="#f7f4f0" stroke-width="3" filter="url(#soft)" opacity="0.96">
    <path d="M30 130 C70 50,130 50,170 130 S270 210,310 130 410 50,450 130 550 210,590 130 690 50,730 130 830 210,870 130 970 50,1010 130 1110 210,1150 130"/>
    <path d="M30 130 C70 210,130 210,170 130 S270 50,310 130 410 210,450 130 550 50,590 130 690 210,730 130 830 50,870 130 970 210,1010 130 1110 50,1150 130"/>
    <circle cx="100" cy="130" r="42"/><circle cx="240" cy="130" r="42"/><circle cx="380" cy="130" r="42"/><circle cx="520" cy="130" r="42"/><circle cx="660" cy="130" r="42"/><circle cx="800" cy="130" r="42"/><circle cx="940" cy="130" r="42"/><circle cx="1080" cy="130" r="42"/>
  </g>
</svg>