<svg xmlns="http://www.w3.org/2000/svg" width="900" height="620" viewBox="0 0 900 620">
  <defs>
    <filter id="shadow" x="-20%" y="-20%" width="160%" height="160%">
      <feDropShadow dx="0" dy="12" stdDeviation="12" flood-opacity=".18"/>
    </filter>
  </defs>
  <g filter="url(#shadow)">
    <path d="
      M60 40
      h780
      q18 0 18 18
      v18
      q-18 8 -18 26
      q0 18 18 26
      v24
      q-18 8 -18 26
      q0 18 18 26
      v24
      q-18 8 -18 26
      q0 18 18 26
      v24
      q-18 8 -18 26
      q0 18 18 26
      v24
      q-18 8 -18 26
      q0 18 18 26
      v18
      q0 18 -18 18
      h-780
      q-18 0 -18 -18
      v-18
      q18 -8 18 -26
      q0 -18 -18 -26
      v-24
      q18 -8 18 -26
      q0 -18 -18 -26
      v-24
      q18 -8 18 -26
      q0 -18 -18 -26
      v-24
      q18 -8 18 -26
      q0 -18 -18 -26
      v-24
      q18 -8 18 -26
      q0 -18 -18 -26
      v-18
      q0 -18 18 -18 z"
      fill="#fcfbf7" stroke="#cfc3ad" stroke-width="3"/>
    <rect x="105" y="90" width="690" height="440" rx="12" fill="none" stroke="#79a9d3" stroke-width="4" stroke-dasharray="10 8"/>
  </g>
</svg>